<?xml version="1.0" encoding="UTF-8"?>
<svg id="Capa_1" data-name="Capa 1" xmlns="http://www.w3.org/2000/svg" version="1.1" viewBox="0 0 30 30">
  <defs>
    <style>
      .cls-1 {
        fill: currentColor;
        fill-rule: evenodd;
        stroke-width: 0px;
      }
    </style>
  </defs>
  <path class="cls-1" d="M15,5c-5.5,0-10,4.5-10,10s4.5,10,10,10,10-4.5,10-10-4.5-10-10-10ZM3,15c0-6.6,5.4-12,12-12s12,5.4,12,12-5.4,12-12,12S3,21.6,3,15Z"/>
  <path class="cls-1" d="M12.6,25.7c0-.1,0-1.2,0-3.3-1,0-1.7,0-2-.2-.4-.3-.8-1.1-1.2-1.7s-1.2-.7-1.5-.8c-.3-.1-.4-.7.9-.3,1.3.4,1.4,1.5,1.8,1.8.4.3,1.4.1,1.8,0,.4-.2.4-1,.5-1.3.1-.3-.3-.3-.3-.3-.4,0-2.7-.5-3.4-2.7-.6-2.2.2-3.7.6-4.3.3-.4.3-1.3,0-2.7,1.2-.2,2.2.2,2.9,1.2,0,0,.9-.5,2.3-.5s1.9.4,2.3.5c.4,0,.7-1.6,3-1.2-.5,1-.9,2.2-.6,2.7.3.5,1.5,2.1.8,4.3-.5,1.5-1.5,2.4-3,2.7-.2,0-.3.1-.3.3,0,.2.2.2.6,1,.2.6.2,2.2,0,4.8-.5.1-.8.2-1.1.2-.5,0-1,.1-1.5.1-.5,0-.7,0-1.4,0-.5,0-.9-.1-1.3-.2Z"/>
</svg>