<?xml version="1.0" encoding="UTF-8"?>
<svg id="Capa_1" data-name="Capa 1" xmlns="http://www.w3.org/2000/svg" version="1.1" viewBox="0 0 30 30">
  <defs>
    <style>
      .cls-1 {
        fill: currentColor;
        stroke-width: 0px;
      }
    </style>
  </defs>
  <path class="cls-1" d="M15,4.1c.5,0,.9,0,1.4,0l.5,2.4.2.9.9.4c.6.3,1.2.6,1.8,1l.7.6.9-.3,2.3-.7c.2.3.5.6.6.9l.2.4c.2.3.4.7.5,1l-1.8,1.7-.7.6v.9c.2.4.2.7.2,1s0,.7,0,1v.9c-.1,0,.6.6.6.6l1.8,1.7c-.1.3-.3.7-.5,1l-.2.4c-.2.3-.4.7-.7,1l-2.3-.7-.9-.3-.7.6c-.5.4-1.1.8-1.8,1l-.9.4-.2.9-.5,2.4c-.4,0-.9,0-1.4,0s-.9,0-1.4,0l-.5-2.4-.2-.9-.9-.4c-.6-.3-1.2-.6-1.8-1l-.7-.6-.9.3-2.3.7c-.2-.3-.5-.6-.6-.9l-.2-.4c-.2-.3-.4-.7-.5-1l1.8-1.7.7-.6v-.9c-.2-.3-.2-.7-.2-1s0-.7,0-1v-.9c.1,0-.6-.6-.6-.6l-1.8-1.7c.1-.3.3-.7.5-1l.2-.4c.2-.3.4-.7.7-1l2.3.7.9.3.7-.6c.5-.4,1.1-.8,1.8-1l.9-.4.2-.9.5-2.4c.4,0,.9,0,1.4,0M15,20.8c3.2,0,5.8-2.6,5.8-5.8s-2.6-5.8-5.8-5.8-5.8,2.6-5.8,5.8,2.6,5.8,5.8,5.8M15,2.3c-.7,0-1.4,0-2.1.2-.5,0-.8.4-.9.9l-.6,2.8c-.8.3-1.5.8-2.2,1.3l-2.8-.9c-.1,0-.2,0-.4,0-.3,0-.6.1-.9.4-.4.5-.8,1-1.1,1.6l-.2.4c-.3.5-.6,1.1-.8,1.7-.2.4,0,.9.3,1.2l2.2,2c0,.4,0,.8,0,1.3s0,.9,0,1.3l-2.2,2c-.3.3-.5.8-.3,1.2h0c.2.6.5,1.2.8,1.7l.2.4c.3.5.7,1.1,1.1,1.6.2.3.5.4.9.4s.2,0,.4,0l2.8-.9c.7.5,1.4.9,2.2,1.3l.6,2.8c0,.5.4.8.9.9.7.1,1.4.2,2.1.2s1.4,0,2.1-.2c.5,0,.8-.4.9-.9l.6-2.8c.8-.3,1.5-.8,2.2-1.3l2.8.9c.1,0,.2,0,.4,0,.3,0,.6-.1.9-.4.4-.5.8-1,1.1-1.6l.2-.4c.3-.5.6-1.1.8-1.7.2-.4,0-.9-.3-1.2l-2.2-2c0-.4,0-.8,0-1.3s0-.9,0-1.3l2.2-2c.3-.3.5-.8.3-1.2-.2-.6-.5-1.2-.8-1.7l-.2-.4c-.3-.5-.7-1.1-1.1-1.6-.2-.3-.5-.4-.9-.4s-.2,0-.4,0l-2.8.9c-.7-.5-1.4-.9-2.2-1.3l-.6-2.8c0-.5-.4-.8-.9-.9-.7-.1-1.4-.2-2.1-.2h0ZM15,19c-2.2,0-4-1.8-4-4s1.8-4,4-4,4,1.8,4,4-1.8,4-4,4h0Z"/>
</svg>