<?xml version="1.0" encoding="UTF-8"?>
<svg id="Capa_2" data-name="Capa 2" xmlns="http://www.w3.org/2000/svg" xmlns:xlink="http://www.w3.org/1999/xlink" viewBox="0 0 109.24 98.33">
  <defs>
    <style>
      .cls-1 {
        stroke: url(#Degradado_sin_nombre_6-6);
      }

      .cls-1, .cls-2, .cls-3, .cls-4, .cls-5, .cls-6, .cls-7, .cls-8, .cls-9, .cls-10, .cls-11, .cls-12, .cls-13, .cls-14, .cls-15, .cls-16, .cls-17, .cls-18, .cls-19, .cls-20, .cls-21, .cls-22, .cls-23, .cls-24, .cls-25, .cls-26, .cls-27, .cls-28, .cls-29, .cls-30, .cls-31 {
        fill: none;
        stroke-miterlimit: 10;
      }

      .cls-2 {
        stroke: url(#Degradado_sin_nombre_6-8);
      }

      .cls-3 {
        stroke: url(#Degradado_sin_nombre_6-7);
      }

      .cls-4 {
        stroke: url(#Degradado_sin_nombre_6-2);
      }

      .cls-5 {
        stroke: url(#Degradado_sin_nombre_6-9);
      }

      .cls-6 {
        stroke: url(#Degradado_sin_nombre_6-4);
      }

      .cls-7 {
        stroke: url(#Degradado_sin_nombre_6-3);
      }

      .cls-8 {
        stroke: url(#Degradado_sin_nombre_6-5);
      }

      .cls-9 {
        stroke: url(#Degradado_sin_nombre_6-30);
      }

      .cls-10 {
        stroke: url(#Degradado_sin_nombre_6-31);
      }

      .cls-11 {
        stroke: url(#Degradado_sin_nombre_6-21);
      }

      .cls-12 {
        stroke: url(#Degradado_sin_nombre_6-20);
      }

      .cls-13 {
        stroke: url(#Degradado_sin_nombre_6-28);
      }

      .cls-14 {
        stroke: url(#Degradado_sin_nombre_6-26);
      }

      .cls-15 {
        stroke: url(#Degradado_sin_nombre_6-25);
      }

      .cls-16 {
        stroke: url(#Degradado_sin_nombre_6-22);
      }

      .cls-17 {
        stroke: url(#Degradado_sin_nombre_6-24);
      }

      .cls-18 {
        stroke: url(#Degradado_sin_nombre_6-23);
      }

      .cls-19 {
        stroke: url(#Degradado_sin_nombre_6-29);
      }

      .cls-20 {
        stroke: url(#Degradado_sin_nombre_6-27);
      }

      .cls-21 {
        stroke: url(#Degradado_sin_nombre_6-17);
      }

      .cls-22 {
        stroke: url(#Degradado_sin_nombre_6-12);
      }

      .cls-23 {
        stroke: url(#Degradado_sin_nombre_6-14);
      }

      .cls-24 {
        stroke: url(#Degradado_sin_nombre_6-15);
      }

      .cls-25 {
        stroke: url(#Degradado_sin_nombre_6-16);
      }

      .cls-26 {
        stroke: url(#Degradado_sin_nombre_6-19);
      }

      .cls-27 {
        stroke: url(#Degradado_sin_nombre_6-18);
      }

      .cls-28 {
        stroke: url(#Degradado_sin_nombre_6-13);
      }

      .cls-29 {
        stroke: url(#Degradado_sin_nombre_6-10);
      }

      .cls-30 {
        stroke: url(#Degradado_sin_nombre_6-11);
      }

      .cls-31 {
        stroke: url(#Degradado_sin_nombre_6);
      }
    </style>
    <linearGradient id="Degradado_sin_nombre_6" data-name="Degradado sin nombre 6" x1="0" y1="49.16" x2="109.24" y2="49.16" gradientTransform="translate(39.62 54.04) rotate(-60) scale(.21)" gradientUnits="userSpaceOnUse">
      <stop offset="0" stop-color="#eb5b2b"/>
      <stop offset="1" stop-color="#ffdd15"/>
    </linearGradient>
    <linearGradient id="Degradado_sin_nombre_6-2" data-name="Degradado sin nombre 6" x1="0" y1="49.16" x2="109.24" y2="49.16" gradientTransform="translate(38.66 53.74) rotate(-58) scale(.23)" xlink:href="#Degradado_sin_nombre_6"/>
    <linearGradient id="Degradado_sin_nombre_6-3" data-name="Degradado sin nombre 6" x1="0" y1="49.16" x2="109.24" y2="49.16" gradientTransform="translate(37.66 53.4) rotate(-56) scale(.24)" xlink:href="#Degradado_sin_nombre_6"/>
    <linearGradient id="Degradado_sin_nombre_6-4" data-name="Degradado sin nombre 6" x1="0" y1="49.16" x2="109.24" y2="49.16" gradientTransform="translate(36.63 52.99) rotate(-54) scale(.25)" xlink:href="#Degradado_sin_nombre_6"/>
    <linearGradient id="Degradado_sin_nombre_6-5" data-name="Degradado sin nombre 6" x1="0" y1="49.16" x2="109.24" y2="49.16" gradientTransform="translate(35.55 52.53) rotate(-52) scale(.26)" xlink:href="#Degradado_sin_nombre_6"/>
    <linearGradient id="Degradado_sin_nombre_6-6" data-name="Degradado sin nombre 6" x1="0" y1="49.16" x2="109.24" y2="49.16" gradientTransform="translate(34.44 52.01) rotate(-50) scale(.28)" xlink:href="#Degradado_sin_nombre_6"/>
    <linearGradient id="Degradado_sin_nombre_6-7" data-name="Degradado sin nombre 6" y1="49.16" x2="109.24" y2="49.16" gradientTransform="translate(33.28 51.41) rotate(-48) scale(.29)" xlink:href="#Degradado_sin_nombre_6"/>
    <linearGradient id="Degradado_sin_nombre_6-8" data-name="Degradado sin nombre 6" x1="0" y1="49.16" x2="109.24" y2="49.16" gradientTransform="translate(32.09 50.74) rotate(-46) scale(.31)" xlink:href="#Degradado_sin_nombre_6"/>
    <linearGradient id="Degradado_sin_nombre_6-9" data-name="Degradado sin nombre 6" x1="0" y1="49.16" x2="109.24" y2="49.16" gradientTransform="translate(30.86 50) rotate(-44) scale(.32)" xlink:href="#Degradado_sin_nombre_6"/>
    <linearGradient id="Degradado_sin_nombre_6-10" data-name="Degradado sin nombre 6" x1="0" y1="49.16" x2="109.24" y2="49.16" gradientTransform="translate(29.59 49.17) rotate(-42) scale(.34)" xlink:href="#Degradado_sin_nombre_6"/>
    <linearGradient id="Degradado_sin_nombre_6-11" data-name="Degradado sin nombre 6" y1="49.16" x2="109.24" y2="49.16" gradientTransform="translate(28.29 48.25) rotate(-40) scale(.36)" xlink:href="#Degradado_sin_nombre_6"/>
    <linearGradient id="Degradado_sin_nombre_6-12" data-name="Degradado sin nombre 6" x1="0" y1="49.16" x2="109.24" y2="49.16" gradientTransform="translate(26.96 47.24) rotate(-38) scale(.38)" xlink:href="#Degradado_sin_nombre_6"/>
    <linearGradient id="Degradado_sin_nombre_6-13" data-name="Degradado sin nombre 6" x1="0" y1="49.16" x2="109.24" y2="49.16" gradientTransform="translate(25.59 46.12) rotate(-36) scale(.4)" xlink:href="#Degradado_sin_nombre_6"/>
    <linearGradient id="Degradado_sin_nombre_6-14" data-name="Degradado sin nombre 6" y1="49.16" x2="109.24" y2="49.16" gradientTransform="translate(24.19 44.89) rotate(-34) scale(.42)" xlink:href="#Degradado_sin_nombre_6"/>
    <linearGradient id="Degradado_sin_nombre_6-15" data-name="Degradado sin nombre 6" x1="0" y1="49.16" x2="109.24" y2="49.16" gradientTransform="translate(22.77 43.55) rotate(-32) scale(.44)" xlink:href="#Degradado_sin_nombre_6"/>
    <linearGradient id="Degradado_sin_nombre_6-16" data-name="Degradado sin nombre 6" x1="0" y1="49.16" x2="109.24" y2="49.16" gradientTransform="translate(21.32 42.09) rotate(-30) scale(.46)" xlink:href="#Degradado_sin_nombre_6"/>
    <linearGradient id="Degradado_sin_nombre_6-17" data-name="Degradado sin nombre 6" x1="0" y1="49.16" x2="109.24" y2="49.16" gradientTransform="translate(19.85 40.5) rotate(-28) scale(.49)" xlink:href="#Degradado_sin_nombre_6"/>
    <linearGradient id="Degradado_sin_nombre_6-18" data-name="Degradado sin nombre 6" x1="0" y1="49.16" x2="109.24" y2="49.16" gradientTransform="translate(18.36 38.77) rotate(-26) scale(.51)" xlink:href="#Degradado_sin_nombre_6"/>
    <linearGradient id="Degradado_sin_nombre_6-19" data-name="Degradado sin nombre 6" x1="0" y1="49.16" x2="109.24" y2="49.16" gradientTransform="translate(16.85 36.9) rotate(-24) scale(.54)" xlink:href="#Degradado_sin_nombre_6"/>
    <linearGradient id="Degradado_sin_nombre_6-20" data-name="Degradado sin nombre 6" x1="0" y1="49.16" x2="109.24" y2="49.16" gradientTransform="translate(15.34 34.87) rotate(-22) scale(.57)" xlink:href="#Degradado_sin_nombre_6"/>
    <linearGradient id="Degradado_sin_nombre_6-21" data-name="Degradado sin nombre 6" x1="0" y1="49.16" x2="109.24" y2="49.16" gradientTransform="translate(13.82 32.69) rotate(-20) scale(.6)" xlink:href="#Degradado_sin_nombre_6"/>
    <linearGradient id="Degradado_sin_nombre_6-22" data-name="Degradado sin nombre 6" x1="0" y1="49.16" x2="109.24" y2="49.16" gradientTransform="translate(12.31 30.33) rotate(-18) scale(.63)" xlink:href="#Degradado_sin_nombre_6"/>
    <linearGradient id="Degradado_sin_nombre_6-23" data-name="Degradado sin nombre 6" x1="0" y1="49.16" x2="109.24" y2="49.16" gradientTransform="translate(10.8 27.8) rotate(-16) scale(.66)" xlink:href="#Degradado_sin_nombre_6"/>
    <linearGradient id="Degradado_sin_nombre_6-24" data-name="Degradado sin nombre 6" x1="0" y1="49.16" x2="109.24" y2="49.16" gradientTransform="translate(9.3 25.08) rotate(-14) scale(.7)" xlink:href="#Degradado_sin_nombre_6"/>
    <linearGradient id="Degradado_sin_nombre_6-25" data-name="Degradado sin nombre 6" x1="0" y1="49.16" x2="109.24" y2="49.16" gradientTransform="translate(7.83 22.16) rotate(-12) scale(.74)" xlink:href="#Degradado_sin_nombre_6"/>
    <linearGradient id="Degradado_sin_nombre_6-26" data-name="Degradado sin nombre 6" x1="0" y1="49.16" x2="109.24" y2="49.16" gradientTransform="translate(6.39 19.04) rotate(-10) scale(.77)" xlink:href="#Degradado_sin_nombre_6"/>
    <linearGradient id="Degradado_sin_nombre_6-27" data-name="Degradado sin nombre 6" x1="0" y1="49.16" x2="109.24" y2="49.16" gradientTransform="translate(4.99 15.7) rotate(-8) scale(.81)" xlink:href="#Degradado_sin_nombre_6"/>
    <linearGradient id="Degradado_sin_nombre_6-28" data-name="Degradado sin nombre 6" x1="0" y1="49.16" x2="109.24" y2="49.16" gradientTransform="translate(3.64 12.14) rotate(-6) scale(.86)" xlink:href="#Degradado_sin_nombre_6"/>
    <linearGradient id="Degradado_sin_nombre_6-29" data-name="Degradado sin nombre 6" x1="0" y1="49.16" x2="109.24" y2="49.16" gradientTransform="translate(2.35 8.34) rotate(-4) scale(.9)" xlink:href="#Degradado_sin_nombre_6"/>
    <linearGradient id="Degradado_sin_nombre_6-30" data-name="Degradado sin nombre 6" x1="0" y1="49.16" x2="109.24" y2="49.16" gradientTransform="translate(1.13 4.3) rotate(-2) scale(.95)" xlink:href="#Degradado_sin_nombre_6"/>
    <linearGradient id="Degradado_sin_nombre_6-31" data-name="Degradado sin nombre 6" x1="0" y1="49.16" x2="109.24" y2="49.16" gradientTransform="matrix(1,0,0,1,0,0)" xlink:href="#Degradado_sin_nombre_6"/>
  </defs>
  <g id="Capa_1-2" data-name="Capa 1">
    <g>
      <path class="cls-31" d="M45.58,46.84l8.71,15.09c1.12,1.93,3.91,1.93,5.03,0l8.71-15.09c1.12-1.93-.28-4.35-2.51-4.35h-17.42c-2.23,0-3.63,2.42-2.51,4.35Z"/>
      <path class="cls-4" d="M45.19,46.39l8.61,16.19c1.1,2.08,4.04,2.18,5.29.18l9.72-15.55c1.25-1.99-.13-4.59-2.48-4.67l-18.33-.64c-2.35-.08-3.91,2.41-2.8,4.49Z"/>
      <path class="cls-7" d="M44.8,45.9l8.46,17.35c1.09,2.22,4.17,2.44,5.56.39l10.79-16c1.38-2.05.03-4.83-2.44-5.01l-19.25-1.35c-2.47-.17-4.2,2.39-3.11,4.62Z"/>
      <path class="cls-6" d="M44.41,45.37l8.26,18.56c1.06,2.38,4.3,2.72,5.83.61l11.94-16.44c1.53-2.11.21-5.08-2.38-5.36l-20.21-2.12c-2.59-.27-4.51,2.36-3.45,4.74Z"/>
      <path class="cls-8" d="M44.02,44.8l8.01,19.83c1.03,2.54,4.42,3.02,6.11.86l13.17-16.85c1.69-2.16.4-5.34-2.31-5.72l-21.18-2.98c-2.72-.38-4.83,2.32-3.8,4.86Z"/>
      <path class="cls-1" d="M43.63,44.18l7.7,21.16c.99,2.71,4.54,3.34,6.4,1.13l14.47-17.25c1.86-2.21.62-5.6-2.22-6.1l-22.17-3.91c-2.84-.5-5.16,2.26-4.18,4.98Z"/>
      <path class="cls-3" d="M43.24,43.52l7.32,22.54c.94,2.89,4.66,3.68,6.69,1.42l15.86-17.61c2.03-2.26.86-5.87-2.11-6.5l-23.18-4.93c-2.97-.63-5.52,2.19-4.58,5.08Z"/>
      <path class="cls-2" d="M42.86,42.81l6.88,23.98c.88,3.08,4.76,4.04,6.98,1.74l17.33-17.94c2.22-2.3,1.12-6.15-1.98-6.92l-24.2-6.03c-3.1-.77-5.88,2.1-5,5.18Z"/>
      <path class="cls-5" d="M42.48,42.04l6.35,25.48c.81,3.27,4.86,4.43,7.28,2.09l18.89-18.24c2.42-2.34,1.4-6.42-1.83-7.35l-25.24-7.24c-3.24-.93-6.27,2-5.45,5.26Z"/>
      <path class="cls-29" d="M42.11,41.23l5.75,27.04c.74,3.47,4.95,4.84,7.59,2.46l20.54-18.49c2.63-2.37,1.71-6.71-1.66-7.8l-26.29-8.54c-3.37-1.1-6.66,1.87-5.93,5.34Z"/>
      <path class="cls-30" d="M41.75,40.36l5.05,28.65c.65,3.67,5.03,5.27,7.89,2.87l22.29-18.7c2.86-2.4,2.05-6.99-1.46-8.27l-27.34-9.95c-3.51-1.28-7.08,1.72-6.43,5.4Z"/>
      <path class="cls-22" d="M41.4,39.42l4.26,30.33c.55,3.89,5.1,5.73,8.19,3.31l24.13-18.86c3.1-2.42,2.41-7.28-1.23-8.75l-28.4-11.47c-3.64-1.47-7.51,1.55-6.96,5.44Z"/>
      <path class="cls-28" d="M41.07,38.43l3.37,32.06c.43,4.11,5.15,6.21,8.5,3.78l26.08-18.95c3.34-2.43,2.8-7.57-.97-9.25l-29.45-13.11c-3.78-1.68-7.96,1.36-7.53,5.47Z"/>
      <path class="cls-23" d="M40.76,37.38l2.37,33.85c.3,4.34,5.19,6.73,8.8,4.29l28.13-18.98c3.61-2.43,3.23-7.86-.68-9.77l-30.5-14.88c-3.91-1.91-8.42,1.13-8.12,5.48Z"/>
      <path class="cls-24" d="M40.48,36.26l1.25,35.7c.16,4.58,5.22,7.27,9.1,4.84l30.29-18.93c3.89-2.43,3.69-8.15-.36-10.3l-31.54-16.77c-4.05-2.15-8.9.88-8.74,5.46Z"/>
      <path class="cls-25" d="M40.22,35.06v37.6c0,4.82,5.22,7.84,9.4,5.43l32.56-18.8c4.18-2.41,4.18-8.44,0-10.85l-32.56-18.8c-4.18-2.41-9.4.6-9.4,5.43Z"/>
      <path class="cls-21" d="M39.99,33.8l-1.38,39.56c-.18,5.07,5.2,8.44,9.69,6.05l34.95-18.58c4.48-2.38,4.7-8.72.4-11.41l-33.57-20.97c-4.3-2.69-9.91.29-10.08,5.36Z"/>
      <path class="cls-27" d="M39.79,32.47l-2.91,41.56c-.37,5.33,5.16,9.07,9.97,6.72l37.45-18.26c4.8-2.34,5.27-9.01.84-11.99l-34.54-23.3c-4.43-2.99-10.43-.06-10.81,5.27Z"/>
      <path class="cls-26" d="M39.63,31.05l-4.58,43.62c-.59,5.59,5.1,9.73,10.24,7.44l40.06-17.84c5.14-2.29,5.87-9.28,1.32-12.59l-35.48-25.78c-4.55-3.31-10.97-.45-11.56,5.15Z"/>
      <path class="cls-12" d="M39.52,29.56l-6.42,45.71c-.82,5.86,5.01,10.42,10.5,8.2l42.8-17.29c5.49-2.22,6.52-9.55,1.85-13.19l-36.38-28.42c-4.67-3.65-11.53-.87-12.35,4.99Z"/>
      <path class="cls-11" d="M39.45,27.99l-8.44,47.86c-1.08,6.14,4.89,11.15,10.74,9.01l45.66-16.62c5.86-2.13,7.21-9.8,2.43-13.81l-37.22-31.24c-4.77-4.01-12.09-1.34-13.18,4.8Z"/>
      <path class="cls-16" d="M39.44,26.33l-10.63,50.03c-1.36,6.42,4.73,11.9,10.97,9.88l48.65-15.81c6.24-2.03,7.94-10.05,3.07-14.44L53.48,21.77c-4.88-4.39-12.67-1.86-14.04,4.56Z"/>
      <path class="cls-18" d="M39.49,24.58l-13.03,52.24c-1.67,6.7,4.54,12.7,11.18,10.79l51.76-14.84c6.64-1.9,8.73-10.28,3.76-15.08L54.43,20.3c-4.97-4.8-13.26-2.42-14.94,4.28Z"/>
      <path class="cls-17" d="M39.61,22.75l-15.62,54.48c-2,6.99,4.31,13.52,11.36,11.76l54.99-13.71c7.05-1.76,9.56-10.49,4.51-15.72L55.48,18.79c-5.05-5.23-13.87-3.03-15.87,3.96Z"/>
      <path class="cls-15" d="M39.8,20.82l-18.44,56.74c-2.36,7.28,4.04,14.38,11.52,12.79l58.36-12.4c7.48-1.59,10.44-10.69,5.32-16.37L56.64,17.24c-5.12-5.69-14.48-3.7-16.84,3.58Z"/>
      <path class="cls-14" d="M40.07,18.81l-21.48,59.01c-2.75,7.57,3.72,15.28,11.65,13.88l61.85-10.91c7.93-1.4,11.38-10.86,6.2-17.03L57.91,15.66c-5.18-6.17-15.09-4.42-17.85,3.15Z"/>
      <path class="cls-20" d="M40.43,16.69l-24.76,61.29c-3.18,7.86,3.35,16.21,11.74,15.03l65.46-9.2c8.4-1.18,12.37-11.01,7.15-17.69L59.32,14.04c-5.22-6.68-15.71-5.21-18.89,2.65Z"/>
      <path class="cls-13" d="M40.88,14.48l-28.3,63.57c-3.63,8.15,2.93,17.18,11.8,16.24l69.2-7.27c8.88-.93,13.41-11.12,8.17-18.34L60.85,12.38c-5.25-7.22-16.34-6.05-19.97,2.1Z"/>
      <path class="cls-19" d="M41.44,12.18L9.33,78.01c-4.12,8.44,2.45,18.18,11.82,17.52l73.07-5.11c9.37-.66,14.52-11.21,9.27-19L62.53,10.7c-5.25-7.79-16.97-6.97-21.09,1.47Z"/>
      <path class="cls-9" d="M42.11,9.77L5.92,77.85c-4.64,8.73,1.91,19.21,11.79,18.87l77.05-2.69c9.88-.35,15.69-11.26,10.45-19.64L64.35,8.99c-5.24-8.39-17.59-7.95-22.24.78Z"/>
      <path class="cls-10" d="M42.91,7.26L2.33,77.55c-5.2,9.01,1.3,20.28,11.71,20.28h81.16c10.41,0,16.91-11.27,11.71-20.28L66.33,7.26c-5.2-9.01-18.22-9.01-23.42,0Z"/>
    </g>
  </g>
</svg>